HIERARCHY
ROOT Hips
{
	OFFSET -14.64140 90.27770 -84.91600
	CHANNELS 6 Xposition Yposition Zposition Zrotation Xrotation Yrotation
	JOINT Spine
	{
		OFFSET 0.00000 13.20850 -1.60436
		CHANNELS 3 Zrotation Xrotation Yrotation
		JOINT Spine1
		{
			OFFSET 0.00000 8.61716 0.00000
			CHANNELS 3 Zrotation Xrotation Yrotation
			JOINT Spine2
			{
				OFFSET 0.00000 8.61717 0.00000
				CHANNELS 3 Zrotation Xrotation Yrotation
				JOINT Spine3
				{
					OFFSET 0.00000 8.61717 0.00000
					CHANNELS 3 Zrotation Xrotation Yrotation
					JOINT Neck
					{
						OFFSET 0.00000 11.07920 1.10792
						CHANNELS 3 Zrotation Xrotation Yrotation
						JOINT Neck1
						{
							OFFSET 0.00000 7.08032 0.00000
							CHANNELS 3 Zrotation Xrotation Yrotation
							JOINT Head
							{
								OFFSET 0.00000 7.08031 0.00000
								CHANNELS 3 Zrotation Xrotation Yrotation
								End site
								{
									OFFSET 0.00000 0.00000 0.00000
								}
							}
						}
					}
					JOINT RightShoulder
					{
						OFFSET -0.01000 7.91373 5.19711
						CHANNELS 3 Zrotation Xrotation Yrotation
						JOINT RightArm
						{
							OFFSET -18.41580 0.00000 0.00000
							CHANNELS 3 Zrotation Xrotation Yrotation
							JOINT RightForeArm
							{
								OFFSET -29.11090 0.00000 0.00000
								CHANNELS 3 Zrotation Xrotation Yrotation
								JOINT RightHand
								{
									OFFSET -24.65040 0.00000 0.00000
									CHANNELS 3 Zrotation Xrotation Yrotation
									JOINT RightHandThumb1
									{
										OFFSET -5.35114 -0.85590 3.97906
										CHANNELS 3 Zrotation Xrotation Yrotation
										JOINT RightHandThumb2
										{
											OFFSET -4.52789 0.00000 0.00000
											CHANNELS 3 Zrotation Xrotation Yrotation
											JOINT RightHandThumb3
											{
												OFFSET -2.46976 0.00000 0.00000
												CHANNELS 3 Zrotation Xrotation Yrotation
												End site
												{
													OFFSET 0.00000 0.00000 0.00000
												}
											}
										}
									}
									JOINT RightHandIndex1
									{
										OFFSET -14.26970 0.00000 2.88139
										CHANNELS 3 Zrotation Xrotation Yrotation
										JOINT RightHandIndex2
										{
											OFFSET -5.48836 0.00000 0.00000
											CHANNELS 3 Zrotation Xrotation Yrotation
											JOINT RightHandIndex3
											{
												OFFSET -3.01859 0.00000 0.00000
												CHANNELS 3 Zrotation Xrotation Yrotation
												End site
												{
													OFFSET 0.00000 0.00000 0.00000
												}
											}
										}
									}
									JOINT RightHandMiddle1
									{
										OFFSET -14.26970 0.00000 -0.09147
										CHANNELS 3 Zrotation Xrotation Yrotation
										JOINT RightHandMiddle2
										{
											OFFSET -6.17441 0.00000 0.00000
											CHANNELS 3 Zrotation Xrotation Yrotation
											JOINT RightHandMiddle3
											{
												OFFSET -3.56743 0.00000 0.00000
												CHANNELS 3 Zrotation Xrotation Yrotation
												End site
												{
													OFFSET 0.00000 0.00000 0.00000
												}
											}
										}
									}
									JOINT RightHandRing1
									{
										OFFSET -12.69180 0.00000 -3.06433
										CHANNELS 3 Zrotation Xrotation Yrotation
										JOINT RightHandRing2
										{
											OFFSET -5.62556 0.00000 0.00000
											CHANNELS 3 Zrotation Xrotation Yrotation
											JOINT RightHandRing3
											{
												OFFSET -3.56744 0.00000 0.00000
												CHANNELS 3 Zrotation Xrotation Yrotation
												End site
												{
													OFFSET 0.00000 0.00000 0.00000
												}
											}
										}
									}
									JOINT RightHandPinky1
									{
										OFFSET -11.11390 0.00000 -6.03719
										CHANNELS 3 Zrotation Xrotation Yrotation
										JOINT RightHandPinky2
										{
											OFFSET -4.52789 0.00000 0.00000
											CHANNELS 3 Zrotation Xrotation Yrotation
											JOINT RightHandPinky3
											{
												OFFSET -2.46976 0.00000 0.00000
												CHANNELS 3 Zrotation Xrotation Yrotation
												End site
												{
													OFFSET 0.00000 0.00000 0.00000
												}
											}
										}
									}
								}
							}
						}
					}
					JOINT LeftShoulder
					{
						OFFSET 0.01000 7.91373 5.19711
						CHANNELS 3 Zrotation Xrotation Yrotation
						JOINT LeftArm
						{
							OFFSET 18.41580 0.00000 0.00000
							CHANNELS 3 Zrotation Xrotation Yrotation
							JOINT LeftForeArm
							{
								OFFSET 29.11090 0.00000 0.00000
								CHANNELS 3 Zrotation Xrotation Yrotation
								JOINT LeftHand
								{
									OFFSET 24.65040 0.00000 0.00000
									CHANNELS 3 Zrotation Xrotation Yrotation
									JOINT LeftHandThumb1
									{
										OFFSET 5.35114 -0.85590 3.97906
										CHANNELS 3 Zrotation Xrotation Yrotation
										JOINT LeftHandThumb2
										{
											OFFSET 4.52789 0.00000 0.00000
											CHANNELS 3 Zrotation Xrotation Yrotation
											JOINT LeftHandThumb3
											{
												OFFSET 2.46977 0.00000 0.00000
												CHANNELS 3 Zrotation Xrotation Yrotation
												End site
												{
													OFFSET 0.00000 0.00000 0.00000
												}
											}
										}
									}
									JOINT LeftHandIndex1
									{
										OFFSET 14.26970 0.00000 2.88139
										CHANNELS 3 Zrotation Xrotation Yrotation
										JOINT LeftHandIndex2
										{
											OFFSET 5.48836 0.00000 0.00000
											CHANNELS 3 Zrotation Xrotation Yrotation
											JOINT LeftHandIndex3
											{
												OFFSET 3.01859 0.00000 0.00000
												CHANNELS 3 Zrotation Xrotation Yrotation
												End site
												{
													OFFSET 0.00000 0.00000 0.00000
												}
											}
										}
									}
									JOINT LeftHandMiddle1
									{
										OFFSET 14.26970 0.00000 -0.09147
										CHANNELS 3 Zrotation Xrotation Yrotation
										JOINT LeftHandMiddle2
										{
											OFFSET 6.17440 0.00000 0.00000
											CHANNELS 3 Zrotation Xrotation Yrotation
											JOINT LeftHandMiddle3
											{
												OFFSET 3.56744 0.00000 0.00000
												CHANNELS 3 Zrotation Xrotation Yrotation
												End site
												{
													OFFSET 0.00000 0.00000 0.00000
												}
											}
										}
									}
									JOINT LeftHandRing1
									{
										OFFSET 12.69180 0.00000 -3.06433
										CHANNELS 3 Zrotation Xrotation Yrotation
										JOINT LeftHandRing2
										{
											OFFSET 5.62556 0.00000 0.00000
											CHANNELS 3 Zrotation Xrotation Yrotation
											JOINT LeftHandRing3
											{
												OFFSET 3.56744 0.00000 0.00000
												CHANNELS 3 Zrotation Xrotation Yrotation
												End site
												{
													OFFSET 0.00000 0.00000 0.00000
												}
											}
										}
									}
									JOINT LeftHandPinky1
									{
										OFFSET 11.11390 0.00000 -6.03719
										CHANNELS 3 Zrotation Xrotation Yrotation
										JOINT LeftHandPinky2
										{
											OFFSET 4.52789 0.00000 0.00000
											CHANNELS 3 Zrotation Xrotation Yrotation
											JOINT LeftHandPinky3
											{
												OFFSET 2.46976 0.00000 0.00000
												CHANNELS 3 Zrotation Xrotation Yrotation
												End site
												{
													OFFSET 0.00000 0.00000 0.00000
												}
											}
										}
									}
								}
							}
						}
					}
					JOINT pCube4
					{
						OFFSET 0.00000 10.91090 1.10792
						CHANNELS 3 Zrotation Xrotation Yrotation
						End site
						{
							OFFSET 0.00000 0.00000 0.00000
						}
					}
				}
			}
		}
	}
	JOINT RightUpLeg
	{
		OFFSET -9.98441 0.00000 0.00000
		CHANNELS 3 Zrotation Xrotation Yrotation
		JOINT RightLeg
		{
			OFFSET 0.00000 -42.11790 0.00000
			CHANNELS 3 Zrotation Xrotation Yrotation
			JOINT RightFoot
			{
				OFFSET 0.00000 -45.00020 -0.00001
				CHANNELS 3 Zrotation Xrotation Yrotation
				JOINT RightForeFoot
				{
					OFFSET 0.00000 -3.74820 0.00000
					CHANNELS 3 Zrotation Xrotation Yrotation
					JOINT RightToeBase
					{
						OFFSET 0.00000 0.06325 14.43120
						CHANNELS 3 Zrotation Xrotation Yrotation
						End site
						{
							OFFSET 0.00000 0.00000 0.00000
						}
					}
				}
			}
		}
	}
	JOINT LeftUpLeg
	{
		OFFSET 9.98441 0.00000 0.00000
		CHANNELS 3 Zrotation Xrotation Yrotation
		JOINT LeftLeg
		{
			OFFSET 0.00000 -42.11800 0.00000
			CHANNELS 3 Zrotation Xrotation Yrotation
			JOINT LeftFoot
			{
				OFFSET 0.00000 -45.00070 0.00000
				CHANNELS 3 Zrotation Xrotation Yrotation
				JOINT LeftForeFoot
				{
					OFFSET 0.00000 -3.74824 0.00000
					CHANNELS 3 Zrotation Xrotation Yrotation
					JOINT LeftToeBase
					{
						OFFSET 0.00000 0.06325 14.43110
						CHANNELS 3 Zrotation Xrotation Yrotation
						End site
						{
							OFFSET 0.00000 0.00000 0.00000
						}
					}
				}
			}
		}
	}
}
MOTION
Frames: 4
Frame Time: 0.050000
0.0182979699958185 -0.013045971070298921 -0.03750155158970387 -0.003200029080848595 -0.016744959973278465 -0.03428422843351291 5.735978587518946 1.983357312798265 -2.429109215681656 -0.635365051959791 3.502240156541139 0.39782127081596613 -0.5262263376207106 -1.556971794710313 0.32282672990028166 -0.7303081371072835 -0.5482654650805111 -0.2852367469335656 -0.4027305149874132 15.06862084132364 -0.22273431931779886 0.44893274650479253 0.8683466467817134 1.0024488209612559 0.4556124685222381 -14.943155750516782 0.070912061692061 -12.887818030377485 4.161292897861541 -18.19226306411818 81.03863761728623 -6.669934023513503 22.01756584456637 33.97880250294751 12.305567878134017 95.10489153915925 14.506122975581706 -0.5815433168708517 -6.278836880378381 4.538963864802783 -0.09683724610093872 -1.550416303112317 -0.022505415050632815 0.03614135260130712 -56.199835714875306 -0.003018053832080639 -0.01330591354741177 -56.21457630277418 -38.73821565775458 0.000923268600330775 -0.023397935921020605 -0.03424309135564285 0.0010669091167332188 0.001618546756004931 -0.01899786044354546 -0.02288481373835729 0.025388143599245922 -36.65401765963975 -0.012450623927129582 0.02796500950151915 -0.010065339894122467 -0.006424840591695964 -0.019244901621047073 0.020296284530425195 0.03801619075664051 0.019982392728343554 -19.78964103072943 0.014086158312628636 0.02727279053631766 0.01653815890596202 -0.01242544699931099 0.024568112102096248 -0.021730355112750455 0.019438930408482127 -0.03440950243062683 24.052250221813928 0.014754618532292962 -0.04545197403421422 28.84824864823078 -0.006743866695542411 0.023135240733038204 28.885484187693137 0.013358337038441009 0.0387071857217042 14.444477892449923 3.1662570301413666 15.212806678162977 -71.73786473994377 6.683556493937149 -29.8864918771355 -39.69149095002336 16.73710880779655 -92.25578109198912 -24.637013366921845 -7.753258576470205 4.91252318125577 -0.43393343099405424 0.11167409321151005 -8.14335512430648 -0.03586880192181245 -0.007254052135063054 44.58880041953536 0.023936937220214196 -0.008380709029100401 44.547152922976295 12.495360077861962 -0.006222118697916551 0.01981734107899535 0.04038741473598322 0.024970978716957394 0.010462204371725396 0.04056734360326675 -0.0007918257237390095 -0.005436991821458435 11.108806467302182 0.032377335533153674 0.004972956421650262 -0.006227458680903231 0.0404898363749946 0.04796528926176142 0.047092081641503636 0.045855569849563745 -0.02012030407458964 4.752909650766569 -0.02760797815923738 -0.03254941702251063 -0.013551698900702371 0.037209395664059425 0.019986292208153393 -0.03108093534010586 0.04385906440838902 0.010048517841789423 -5.581551591890972 0.007897541841998028 -0.03987141943278488 -6.76224136856669 0.007529457756054706 0.04682024084374679 -6.75199668263141 -0.01819759000206844 0.0002904756945407278 -0.038759193641206044 -0.03141123892270615 -0.013931436430177682 8.00910953320387 3.5024016249185763 -19.230587415593842 0.0006542572233959801 10.39292803110955 0.039577157582243366 -5.579883051798234 -15.630162056217008 3.1861622245692733 0.03667919905215991 -0.041474678536764994 -0.018684512023250142 -0.008079738174491041 4.710528955615441 0.0475013677240597 12.477393940833247 -8.272573497087471 6.878206216834411 -0.008910058445316501 46.36183290818792 0.010701964649476876 -4.319360216300894 -14.775884396293144 -3.8643170313280506 -2.2494178838711233e-05 -0.015320767951530359 -0.009717851334515096 -0.04065010573126306 -10.77570720033086 -0.037075801319103194 
0.01746579327255268 -0.03933678292420909 0.02734525413229105 0.014476932752349334 0.019406662340387376 -0.02987216097188182 5.817013939972741 1.9450620910574905 -2.4171499253531676 -0.6591064916644651 3.4929438533600896 0.3154596367192583 -0.4784311868390567 -1.4888355107605507 0.35148325491143684 -0.7333695464285974 -0.5531913964935866 -0.25327186843150795 -0.43222724879811747 15.080295869563761 -0.2698196235250715 0.46802696885745076 0.847195072352367 1.0750146226587138 0.3938419990381704 -14.971681993882447 0.08180067417029516 -12.8870025927868 4.129049987765762 -18.11046804571021 81.64642023534637 -5.1864030940590045 22.436846370831734 35.637236529698185 12.298282672173054 95.52607418446166 15.177122499795614 -0.5812279918272141 -7.005780939007309 4.506971228924786 -0.08997429276606005 -1.5922666026269534 -0.036072122093284316 0.037818137661337264 -56.22993311519245 -0.015992329006722046 0.03214765242657968 -56.242433507367465 -38.79145536490485 0.01348366580525354 -0.007238897456282967 -0.013459916374644174 -0.012606884687869675 0.01984987539410511 -0.04401770130316066 -0.005091867058315345 -0.048597743973508085 -36.726303552348156 0.006116675951051753 0.029892473940024474 -0.039660312265057236 0.0028035959679302332 -0.0013748887112005304 0.012159196932955753 -0.04703035359692258 0.01646379612567338 -19.71915649567814 0.01207452731279689 -0.010074987943085707 0.009551158594306032 0.04734090796960641 -0.000547190942654405 0.005400051053643319 0.006946779902571415 0.012440215846315323 24.041064285732094 0.0037600915731218643 0.009828367107292095 28.88426533884459 -0.014289269821686216 -0.002968873947573965 28.91002020928576 0.022016677472339097 -0.013468738970078597 14.552232408801798 3.1386701064771576 15.04489830922577 -72.07263187710574 7.707411543889825 -30.184333708747797 -40.38202806286657 16.666781900306574 -92.09843858598529 -25.781373406801464 -8.860540101282576 6.0209418569437405 -0.4659640122972053 0.04028487853791186 -8.09028407862313 -0.023510502439069575 -0.028036413801534037 44.571460914986666 -0.009198328856444523 -0.006454024059570811 44.54300709880998 12.466487657590328 -0.03156548865334192 0.026802491451646062 0.0007731450909037995 -0.004293121629599422 0.037261350101507655 0.0068883903610692625 0.04075914453834586 0.023233422624458863 11.100963541348314 0.012916042589006615 0.03516656555625592 0.0354855731573656 0.01941370082400193 -0.01482896764204391 -0.02131514748357888 -0.030387720278449565 0.04639138944104378 4.81781321915449 -0.03554333474472803 -0.035212427994333426 -0.016283261607503492 0.01904608688070083 0.04274513400168557 -0.016274503062252144 -0.03384186916522624 -0.023108958438630874 -5.603536254103702 -0.006531327088462193 -0.024634447461514275 -6.735569534172426 0.04929344071349509 -0.028830300246830514 -6.761081509743452 0.00915056353766654 -0.03903622132771019 -0.03644614547058642 0.041881070348900776 -0.013983589889538763 8.022232262901035 3.475213365037653 -19.216625934342417 0.04637575648253466 10.404375054553086 0.00612856994621672 -5.611115553434773 -15.663838706767155 3.2112672384432397 0.02342807648432674 0.011879367341545582 0.010666606578695875 0.04645274660462929 4.666199470317623 -0.0258147406275859 12.444150967816494 -8.273067865943801 6.842301858043236 -0.0009944317423383555 46.363058485849 0.022803332078649444 -4.305813341884507 -14.72517805359432 -3.7967509147733187 0.031172201523854266 0.014223413212073795 0.00880624397239443 0.029926436290440273 -10.71737669745968 -0.0322256614462239 
0.015716188203998133 0.0004601232432863218 -0.015547485966937844 0.012602938934002456 -0.007555615464459576 -0.019781965269102832 5.8892903817186415 1.9368247963449994 -2.4304648378598865 -0.6647656015040201 3.5172828127888214 0.4026972304627521 -0.440416533678758 -1.5533901081730646 0.32115519206913856 -0.7155810025606905 -0.5687274186277442 -0.28643658371545594 -0.392308153278192 15.030021591632021 -0.24138254588201408 0.41257445813398447 0.8700360109392042 0.9654264816413084 0.42717151484326543 -15.056996256164366 0.10264688267969012 -12.864568283406474 4.189663374629597 -18.024885999339723 81.98278654947025 -3.11080501183498 22.353977784006755 36.69345750584532 12.102244427518606 95.75044199751449 15.720100087842882 -0.5596210125208614 -7.582240917692577 4.562760610005819 -0.08517903407575911 -1.6148237518618278 0.034861206719079454 0.020771461237419103 -56.21852385353744 -0.037810402645793044 0.025579422791263396 -56.21838501083006 -38.75785590025549 0.02151949676840723 -0.0045569694241883495 0.01061842420895576 0.0033770131312230436 0.02677914872259573 -0.0197962311327274 -0.04026021573980417 -0.004501382402639276 -36.719002228243646 0.002858204768565396 0.021181163524273385 0.02105646493296861 0.014901269637879508 0.00967020438444306 0.012317348523785339 0.0013810246553829983 0.01594264620482165 -19.74695457600566 0.009331022727418273 -0.012930810654164565 -0.015038817038400662 0.028437473029345278 0.04573010544799115 0.010597495297171584 0.027139305909402753 0.0460888687288646 24.066824021498828 -0.000330732661725483 0.012178774615427948 28.89502401942125 0.02548668121195768 -0.046493913592589725 28.865284308802075 0.044803290615062885 0.019591106724421 14.452211218196416 3.1913324220540775 14.945782138693092 -72.22820469395454 9.350577661778756 -30.339295059783037 -40.640031722491486 16.433449224418023 -91.58411012064187 -26.722577053183976 -9.82597823703221 7.070293788660178 -0.4275029030459231 0.0889880149646394 -8.164790567321754 0.031195468827841282 0.04608561469639769 44.58103736694159 0.03378516419344306 -0.014373149108187551 44.54122636644141 12.486103422085785 -0.02169278526579151 0.03259321829312454 -0.03020487829013456 0.044568741369475175 -0.012279458464651154 -0.007306418993815174 -0.030956502525410233 -0.0047573192123729615 11.091061308956935 -0.040134777711746894 0.004586215313099371 -0.04495834680350277 0.02879035783909489 -0.048565742079538884 0.02711365051491137 -0.043782282944080146 -0.02160308230406286 4.760121182061595 0.03396180545878508 -0.014699129849503905 -0.01739442395250888 0.018824491297289095 -0.0040675722390603524 -0.04706850980297925 -0.03067071539494157 -0.049056532285108666 -5.634333901822494 -0.02479548906553088 -0.025766681886990807 -6.688905934387998 0.007157752226930117 -0.014949020376413682 -6.738969593768492 -0.039554221148665525 -0.03787149996027438 -0.01118581919931009 0.04720604051592973 -0.012240179737347045 8.042337015707623 3.4614002573807 -19.260815880096636 0.032629212723777556 10.382240562563137 -0.0027923433374585603 -5.5993507734335175 -15.681838931227231 3.1830758706179854 0.020833889624449632 -0.02337046736780412 -0.01299397951695047 -0.030504059292038595 4.705307915345442 -0.025154185710310615 12.483665587340088 -8.266026170361858 6.922663901090294 -0.02639777272664192 46.36766505805426 -0.018344309338230134 -4.356568917491643 -14.706875790710328 -3.826806810857696 -0.03267529230472136 0.016904644234914567 0.0003141290108135115 0.0313252094679723 -10.740621504972209 0.015440773505006479 
0.033351647524733484 -0.030516196290618986 -0.015358557860469657 -0.02892680135348176 0.005657039584098629 0.02015831036744767 5.932180982214894 2.0025517130604418 -2.483970449044795 -0.6601082018662968 3.4613301988678025 0.3787646078751592 -0.5099676210358914 -1.4747189382953896 0.3097392831321359 -0.7440495038551768 -0.4941615609757573 -0.3211260774249302 -0.4003629178232036 14.938350684214722 -0.2667496600855764 0.39550914123102293 0.7859727684207275 0.8988365153354347 0.45508173126812673 -15.099183500243141 0.07816436759046985 -12.692133509084528 4.100774647630034 -17.896762612590905 82.29828866506193 -1.380963339489456 22.196978630836636 37.44609760035159 11.804162912094041 95.7398138236796 16.363122035246683 -0.617822391258687 -8.037734946537483 4.540477270251125 -0.15316233079385308 -1.5795292961067664 0.008129165610151336 0.00545913068848178 -56.25640551677162 0.016209067450418783 -0.021897902323611333 -56.28126174498396 -38.73388688269027 0.034285432016068686 0.025962927463089328 -0.006480372934438199 0.026006876750437127 -0.024937727153051113 0.03800270036231137 -0.04838770022492019 -0.014035874974259824 -36.662527270026395 -0.009443294329904546 -0.020785918357036432 -0.027579254726122823 -0.007083597315179677 0.038737687822182426 -0.03644493326532286 0.007182422674857596 -0.012995414779273578 -19.76799453305814 0.005678656839047426 0.004005981943433663 0.03311895644825516 -0.04837485745903839 0.04030803214126237 -0.014013700242142506 0.037941114908717655 0.04344787636982355 24.10407087835016 0.027289289656489267 -0.022681696680453254 28.88685649774532 -0.03604472704242022 0.021897510610754768 28.848025105089274 -0.006825470604401537 -0.01176756270276641 14.452233949001211 3.1863720858873985 14.836872047522062 -72.27876879239834 10.517993150304829 -30.60284909890404 -41.459123365179664 16.150662528461304 -91.50607762973033 -27.547020755075927 -10.443319427595403 7.694156101008603 -0.5051581453334781 0.11448015986785481 -8.11467734436485 0.024665160555398538 -0.006049414268169907 44.53340823292774 0.011983717217418137 -0.018565973359630214 44.56314866698732 12.418192300116413 -0.033259792173075474 -0.03625849779865425 -0.043268779807080465 0.015992205978767954 -0.005928592705271475 -0.02736459317484187 0.018148020264321232 -0.026981455494313418 11.107052371182363 0.004281034228743168 -0.04110899573658625 -0.011470679989409358 0.01205143976834721 -0.01820389705281494 0.03859669211479985 -0.03679737218101955 0.0018312647048812282 4.8047426813583005 -0.008588323951218222 0.029427240463960315 -0.023102713205005072 0.013231960870995506 0.01786726066906157 -0.029927771994442267 0.023817467484349885 0.03587390894823522 -5.613074462700953 0.04577636095476722 0.03654066853741966 -6.732838188854898 0.030344452314768 0.0069414710547318565 -6.714024014227913 -0.018065491542906115 -0.0154144508216521 0.029256908720411524 -0.025784880844674524 -0.031090332874660138 8.029845753159153 3.473264500180995 -19.213835513077562 0.002628384860487887 10.424757081198692 0.0461521529546602 -5.643696822583892 -15.70542303366036 3.2222317135033043 0.01479356451148513 -0.038516852012404575 -0.019175476361543455 -0.04491211217435742 4.689522549312818 0.04580837809313288 12.455761502929791 -8.25506935887438 6.91418719203056 0.03356892735208121 46.34612997411642 -0.003210633755364834 -4.283548292992547 -14.767782794640041 -3.882941656760407 -0.036702238804804714 0.015166240511043238 -0.011494958115880895 0.040454394948145636 -10.716141951644685 -0.000602285605572842 
